<svg width="60" height="60" viewBox="0 0 60 60" fill="none" xmlns="http://www.w3.org/2000/svg">
<rect x="1" y="1" width="58" height="58" rx="29" stroke="white" stroke-width="2"/>
<path d="M40.9033 14.6952C46.5022 15.1152 48.8631 17.352 49.4949 23.489L44.4773 23.6962C44.3103 22.1354 43.9767 21.4337 43.0605 20.4142C42.0126 19.6429 41.3001 19.4771 39.8806 19.4982C38.4278 19.5257 37.7283 19.7214 36.7007 20.4142C36.1519 20.8428 35.8389 21.3848 35.7758 21.9189C35.6398 22.9019 35.9456 23.6674 36.6536 24.3013C36.9206 24.488 37.2023 24.6617 37.4994 24.8247C39.122 25.5443 40.9863 26.0485 42.7835 26.6293C47.1454 28.1256 49.2374 29.3133 50.1127 34.1419C50.4969 38.6789 49.7595 40.7387 46.3629 43.3556C44.0965 44.5582 42.6599 44.9139 39.7048 44.7949C36.9337 44.661 34.8787 44.0306 33.2723 42.5051C31.4884 41.0746 30.5008 38.7934 30 34.8616L34.879 34.3055C35.1556 35.996 35.4524 36.9071 36.3705 38.2199C37.653 39.5437 38.5343 39.8306 40.2641 39.8991C42.3173 39.8414 43.2351 39.49 44.4028 38.2199C45.0276 37.4495 45.2898 36.5693 45.1751 35.3523C45.1213 34.2714 44.4683 33.4866 42.922 32.8455C42.4836 32.6507 41.9655 32.4686 41.356 32.2992C40.7858 32.1015 40.1327 31.9104 39.3959 31.7014C38.802 31.488 38.1435 31.2792 37.4144 31.0671C33.4208 29.7072 32.2414 28.1664 31.1612 24.6666C30.7522 21.7158 31.027 20.3293 32.2478 18.2443C34.6933 15.1014 36.7403 14.6099 40.9033 14.6952Z" fill="white" fill-opacity="0.65"/>
<path d="M29.6565 18.6485C29.5918 19.0389 29.4648 19.1447 29.1568 19.232L15.0728 19.232V26.5112H28.5322C28.8384 26.6247 28.9518 26.7295 29.0319 27.0026V30.5961C28.9365 30.8836 28.8232 30.9871 28.5322 31.0875H15.0728V40.2709H29.4691C29.8221 40.3458 29.9169 40.4791 30 40.7931V44.3252C29.9163 44.6367 29.8098 44.7479 29.5003 44.8166H10.2948L9.79517 44.3252V15.1778L10.2948 14.6864H29.1529C29.473 14.7936 29.575 14.9078 29.6565 15.1817V18.6485Z" fill="white" fill-opacity="0.65"/>
</svg>
